name rise44.8762peak52.3436fall86.788.mot
datacolumns 19
datarows 15
range 16.15994100000000 16.18327000000000
endheader
time	ground_force1_vx	ground_force1_vy	ground_force1_vz	ground_force1_px	ground_force1_py	ground_force1_pz	ground_force2_vx	ground_force2_vy	ground_force2_vz	ground_force2_px	ground_force2_py	ground_force2_pz	ground_torque1_x	ground_torque1_y	ground_torque1_z	ground_torque2_x	ground_torque2_y	ground_torque2_z	
16.15994100000000	-8.40889400000000	700.83910300000002	44.80182000000000	0.11902800000000	0.00000000000000	0.12407800000000	0.00000000000000	0.00000000000000	0.00000000000000	0.00000000000000	0.00000000000000	0.00000000000000	0.00000000000000	12.12298400000000	0.00000000000000	0.00000000000000	0.00000000000000	0.00000000000000	
16.16160500000000	-8.94083400000000	701.32373700000005	44.91242400000000	0.11795600000000	0.00000000000000	0.12414600000000	0.00000000000000	0.00000000000000	0.00000000000000	0.00000000000000	0.00000000000000	0.00000000000000	0.00000000000000	12.20812200000000	0.00000000000000	0.00000000000000	0.00000000000000	0.00000000000000	
16.16327600000000	-9.48595800000000	701.84559300000001	45.02419800000000	0.11687800000000	0.00000000000000	0.12421400000000	0.00000000000000	0.00000000000000	0.00000000000000	0.00000000000000	0.00000000000000	0.00000000000000	0.00000000000000	12.29764500000000	0.00000000000000	0.00000000000000	0.00000000000000	0.00000000000000	
16.16493800000000	-10.04428500000000	702.40433599999994	45.13694000000000	0.11579500000000	0.00000000000000	0.12428300000000	0.00000000000000	0.00000000000000	0.00000000000000	0.00000000000000	0.00000000000000	0.00000000000000	0.00000000000000	12.39150500000000	0.00000000000000	0.00000000000000	0.00000000000000	0.00000000000000	
16.16660100000000	-10.61578600000000	702.99967700000002	45.25047800000000	0.11470900000000	0.00000000000000	0.12435300000000	0.00000000000000	0.00000000000000	0.00000000000000	0.00000000000000	0.00000000000000	0.00000000000000	0.00000000000000	12.48965000000000	0.00000000000000	0.00000000000000	0.00000000000000	0.00000000000000	
16.16827400000000	-11.20038600000000	703.63137700000004	45.36465900000000	0.11361900000000	0.00000000000000	0.12442300000000	0.00000000000000	0.00000000000000	0.00000000000000	0.00000000000000	0.00000000000000	0.00000000000000	0.00000000000000	12.59202400000000	0.00000000000000	0.00000000000000	0.00000000000000	0.00000000000000	
16.16993900000000	-11.79796600000000	704.29924400000004	45.47935700000000	0.11252800000000	0.00000000000000	0.12449300000000	0.00000000000000	0.00000000000000	0.00000000000000	0.00000000000000	0.00000000000000	0.00000000000000	0.00000000000000	12.69856500000000	0.00000000000000	0.00000000000000	0.00000000000000	0.00000000000000	
16.17159900000000	-12.40835900000000	705.00313100000005	45.59447100000000	0.11143600000000	0.00000000000000	0.12456300000000	0.00000000000000	0.00000000000000	0.00000000000000	0.00000000000000	0.00000000000000	0.00000000000000	0.00000000000000	12.80920100000000	0.00000000000000	0.00000000000000	0.00000000000000	0.00000000000000	
16.17326800000000	-13.03135700000000	705.74293699999998	45.70992300000000	0.11034300000000	0.00000000000000	0.12463400000000	0.00000000000000	0.00000000000000	0.00000000000000	0.00000000000000	0.00000000000000	0.00000000000000	0.00000000000000	12.92385800000000	0.00000000000000	0.00000000000000	0.00000000000000	0.00000000000000	
16.17494200000000	-13.66670400000000	706.51860499999998	45.82565800000000	0.10925200000000	0.00000000000000	0.12470400000000	0.00000000000000	0.00000000000000	0.00000000000000	0.00000000000000	0.00000000000000	0.00000000000000	0.00000000000000	13.04245200000000	0.00000000000000	0.00000000000000	0.00000000000000	0.00000000000000	
16.17660600000000	-14.31410500000000	707.33011699999997	45.94164400000000	0.10816300000000	0.00000000000000	0.12477500000000	0.00000000000000	0.00000000000000	0.00000000000000	0.00000000000000	0.00000000000000	0.00000000000000	0.00000000000000	13.16489300000000	0.00000000000000	0.00000000000000	0.00000000000000	0.00000000000000	
16.17826600000000	-14.97322100000000	708.17749200000003	46.05787400000000	0.10707800000000	0.00000000000000	0.12484500000000	0.00000000000000	0.00000000000000	0.00000000000000	0.00000000000000	0.00000000000000	0.00000000000000	0.00000000000000	13.29108000000000	0.00000000000000	0.00000000000000	0.00000000000000	0.00000000000000	
16.17993200000000	-15.64367300000000	709.06078600000001	46.17435900000000	0.10599600000000	0.00000000000000	0.12491500000000	0.00000000000000	0.00000000000000	0.00000000000000	0.00000000000000	0.00000000000000	0.00000000000000	0.00000000000000	13.42090800000000	0.00000000000000	0.00000000000000	0.00000000000000	0.00000000000000	
16.18160500000000	-16.32504100000000	709.98008300000004	46.29113500000000	0.10491900000000	0.00000000000000	0.12498500000000	0.00000000000000	0.00000000000000	0.00000000000000	0.00000000000000	0.00000000000000	0.00000000000000	0.00000000000000	13.55426100000000	0.00000000000000	0.00000000000000	0.00000000000000	0.00000000000000	
16.18327000000000	-17.01686800000000	710.93549499999995	46.40825600000000	0.10384800000000	0.00000000000000	0.12505500000000	0.00000000000000	0.00000000000000	0.00000000000000	0.00000000000000	0.00000000000000	0.00000000000000	0.00000000000000	13.69101300000000	0.00000000000000	0.00000000000000	0.00000000000000	0.00000000000000	
